<svg width="227" height="240" viewBox="0 0 227 240" fill="none" xmlns="http://www.w3.org/2000/svg">
<path d="M113.5 228C160.513 228 198.625 222.627 198.625 216C198.625 209.373 160.513 204 113.5 204C66.4868 204 28.375 209.373 28.375 216C28.375 222.627 66.4868 228 113.5 228Z" fill="black" fill-opacity="0.2"/>
<path d="M113.5 180C160.513 180 198.625 163.882 198.625 144C198.625 124.118 160.513 108 113.5 108C66.4868 108 28.375 124.118 28.375 144C28.375 163.882 66.4868 180 113.5 180Z" fill="url(#paint0_radial_6061_6601)" stroke="#8A5C1E" stroke-width="6"/>
<path opacity="0.85" d="M68.1001 166.8C70.6074 166.8 72.6401 164.651 72.6401 162C72.6401 159.349 70.6074 157.2 68.1001 157.2C65.5927 157.2 63.5601 159.349 63.5601 162C63.5601 164.651 65.5927 166.8 68.1001 166.8Z" fill="#B46F1E"/>
<path opacity="0.8" d="M158.9 168C162.034 168 164.575 165.314 164.575 162C164.575 158.686 162.034 156 158.9 156C155.766 156 153.225 158.686 153.225 162C153.225 165.314 155.766 168 158.9 168Z" fill="#B46F1E"/>
<path d="M113.5 84C90.8 84 79.45 102 79.45 114H147.55C147.55 102 136.2 84 113.5 84Z" fill="white" stroke="#CCCCCC" stroke-width="3"/>
<path d="M141.875 108H85.125C81.9907 108 79.45 110.686 79.45 114C79.45 117.314 81.9907 120 85.125 120H141.875C145.009 120 147.55 117.314 147.55 114C147.55 110.686 145.009 108 141.875 108Z" fill="white" stroke="#CCCCCC" stroke-width="3"/>
<path d="M45.4 144C22.7 132 22.7 108 45.4 96" stroke="#8A5C1E" stroke-width="8" stroke-linecap="round"/>
<path d="M181.6 144C204.3 132 204.3 108 181.6 96" stroke="#8A5C1E" stroke-width="8" stroke-linecap="round"/>
<path d="M96.475 180L85.125 210L96.475 180Z" fill="black"/>
<path d="M96.475 180L85.125 210" stroke="#8A5C1E" stroke-width="8" stroke-linecap="round"/>
<path d="M130.525 180L141.875 210L130.525 180Z" fill="black"/>
<path d="M130.525 180L141.875 210" stroke="#8A5C1E" stroke-width="8" stroke-linecap="round"/>
<path d="M85.125 219C88.2592 219 90.8 216.314 90.8 213C90.8 209.686 88.2592 207 85.125 207C81.9907 207 79.45 209.686 79.45 213C79.45 216.314 81.9907 219 85.125 219Z" fill="#8A5C1E"/>
<path d="M141.875 219C145.009 219 147.55 216.314 147.55 213C147.55 209.686 145.009 207 141.875 207C138.741 207 136.2 209.686 136.2 213C136.2 216.314 138.741 219 141.875 219Z" fill="#8A5C1E"/>
<path d="M90.8 139.2C94.561 139.2 97.61 135.976 97.61 132C97.61 128.024 94.561 124.8 90.8 124.8C87.0389 124.8 83.99 128.024 83.99 132C83.99 135.976 87.0389 139.2 90.8 139.2Z" fill="white"/>
<path d="M136.2 139.2C139.961 139.2 143.01 135.976 143.01 132C143.01 128.024 139.961 124.8 136.2 124.8C132.439 124.8 129.39 128.024 129.39 132C129.39 135.976 132.439 139.2 136.2 139.2Z" fill="white"/>
<path d="M90.8 135.6C92.6805 135.6 94.205 133.988 94.205 132C94.205 130.012 92.6805 128.4 90.8 128.4C88.9195 128.4 87.395 130.012 87.395 132C87.395 133.988 88.9195 135.6 90.8 135.6Z" fill="black"/>
<path d="M136.2 135.6C138.081 135.6 139.605 133.988 139.605 132C139.605 130.012 138.081 128.4 136.2 128.4C134.32 128.4 132.795 130.012 132.795 132C132.795 133.988 134.32 135.6 136.2 135.6Z" fill="black"/>
<path opacity="0.8" d="M88.53 131.4C89.4703 131.4 90.2325 130.594 90.2325 129.6C90.2325 128.606 89.4703 127.8 88.53 127.8C87.5897 127.8 86.8275 128.606 86.8275 129.6C86.8275 130.594 87.5897 131.4 88.53 131.4Z" fill="white"/>
<path opacity="0.8" d="M133.93 131.4C134.87 131.4 135.633 130.594 135.633 129.6C135.633 128.606 134.87 127.8 133.93 127.8C132.99 127.8 132.228 128.606 132.228 129.6C132.228 130.594 132.99 131.4 133.93 131.4Z" fill="white"/>
<path d="M90.8 147C105.933 161 121.067 161 136.2 147" stroke="black" stroke-width="5" stroke-linecap="round"/>
<path opacity="0.6" d="M79.45 147C82.5842 147 85.125 144.314 85.125 141C85.125 137.686 82.5842 135 79.45 135C76.3158 135 73.775 137.686 73.775 141C73.775 144.314 76.3158 147 79.45 147Z" fill="#FFAFAF"/>
<path opacity="0.6" d="M147.55 147C150.684 147 153.225 144.314 153.225 141C153.225 137.686 150.684 135 147.55 135C144.416 135 141.875 137.686 141.875 141C141.875 144.314 144.416 147 147.55 147Z" fill="#FFAFAF"/>
<defs>
<radialGradient id="paint0_radial_6061_6601" cx="0" cy="0" r="1" gradientUnits="userSpaceOnUse" gradientTransform="translate(8540.88 3348) scale(8512.5 3600)">
<stop stop-color="#FFF2B8"/>
<stop offset="1" stop-color="#E39D3A"/>
</radialGradient>
</defs>
</svg>
